<svg width="42" height="42" viewBox="0 0 42 42" fill="none" xmlns="http://www.w3.org/2000/svg">
<g id="carbon:badge">
<path id="Vector" d="M30.1875 2.625L32.2783 6.5625L36.75 7.10588L33.4688 10.0629L34.125 14.4375L30.1875 11.9766L26.25 14.4375L26.9062 10.0629L23.625 7.10588L28.2188 6.5625L30.1875 2.625Z" fill="#158AFF"/>
<path id="Vector_2" d="M29.8163 17.3891L27.2726 16.7355C26.8167 18.4919 25.8504 20.0738 24.4958 21.2813C23.1412 22.4888 21.4591 23.2677 19.6621 23.5197C17.865 23.7716 16.0335 23.4853 14.3991 22.6969C12.7647 21.9085 11.4006 20.6533 10.4792 19.09C9.55784 17.5266 9.12047 15.7253 9.22237 13.9135C9.32427 12.1017 9.96088 10.3608 11.0518 8.91061C12.1426 7.46047 13.6389 6.36617 15.3514 5.76598C17.0639 5.1658 18.9159 5.08664 20.6734 5.53852L21.3283 2.99621C18.7663 2.32979 16.0546 2.54429 13.6292 3.60522C11.2038 4.66616 9.20568 6.51188 7.95602 8.84564C6.70636 11.1794 6.2778 13.8656 6.73925 16.4724C7.2007 19.0791 8.52534 21.4549 10.5002 23.2179V39.3748L18.3752 34.1248L26.2502 39.3748V23.2415C27.9934 21.6879 29.2348 19.6506 29.8163 17.3891ZM23.6252 34.47L18.3752 30.9695L13.1252 34.47V25.0029C14.7541 25.8212 16.5514 26.248 18.3743 26.2493C20.1971 26.2507 21.9951 25.8266 23.6252 25.0108V34.47Z" fill="#158AFF"/>
</g>
</svg>
