<svg width="37" height="37" viewBox="0 0 37 37" fill="none" xmlns="http://www.w3.org/2000/svg">
<g id="fluent-mdl2:completed" clip-path="url(#clip0_5730_11684)">
<path id="Vector" d="M26.937 10.7495L28.563 12.3755L15.0312 25.9072L8.43701 19.313L10.063 17.687L15.0312 22.6553L26.937 10.7495ZM18.5 0C20.1982 0 21.8363 0.216797 23.4141 0.650391C24.9919 1.08398 26.4673 1.70426 27.8403 2.51123C29.2134 3.3182 30.46 4.28174 31.5801 5.40186C32.7002 6.52197 33.6637 7.77458 34.4707 9.15967C35.2777 10.5448 35.8979 12.0202 36.3315 13.5859C36.7651 15.1517 36.988 16.7897 37 18.5C37 20.1982 36.7832 21.8363 36.3496 23.4141C35.916 24.9919 35.2957 26.4673 34.4888 27.8403C33.6818 29.2134 32.7183 30.46 31.5981 31.5801C30.478 32.7002 29.2254 33.6637 27.8403 34.4707C26.4552 35.2777 24.9798 35.8979 23.4141 36.3315C21.8483 36.7651 20.2103 36.988 18.5 37C16.8018 37 15.1637 36.7832 13.5859 36.3496C12.0081 35.916 10.5327 35.2957 9.15967 34.4888C7.78662 33.6818 6.54004 32.7183 5.41992 31.5981C4.2998 30.478 3.33626 29.2254 2.5293 27.8403C1.72233 26.4552 1.10205 24.9858 0.668457 23.4321C0.234863 21.8784 0.0120443 20.2344 0 18.5C0 16.8018 0.216797 15.1637 0.650391 13.5859C1.08398 12.0081 1.70426 10.5327 2.51123 9.15967C3.3182 7.78662 4.28174 6.54004 5.40186 5.41992C6.52197 4.2998 7.77458 3.33626 9.15967 2.5293C10.5448 1.72233 12.0142 1.10205 13.5679 0.668457C15.1216 0.234863 16.7656 0.0120443 18.5 0ZM18.5 34.6875C19.9814 34.6875 21.4087 34.4948 22.7817 34.1094C24.1548 33.724 25.4435 33.182 26.6479 32.4834C27.8524 31.7848 28.9484 30.9357 29.936 29.936C30.9237 28.9364 31.7668 27.8464 32.4653 26.666C33.1639 25.4857 33.7119 24.1969 34.1094 22.7998C34.5068 21.4027 34.6995 19.9694 34.6875 18.5C34.6875 17.0186 34.4948 15.5913 34.1094 14.2183C33.724 12.8452 33.182 11.5565 32.4834 10.3521C31.7848 9.14762 30.9357 8.05159 29.936 7.06396C28.9364 6.07633 27.8464 5.23324 26.666 4.53467C25.4857 3.8361 24.1969 3.28809 22.7998 2.89062C21.4027 2.49316 19.9694 2.30046 18.5 2.3125C17.0186 2.3125 15.5913 2.50521 14.2183 2.89062C12.8452 3.27604 11.5565 3.81803 10.3521 4.5166C9.14762 5.21517 8.05159 6.06429 7.06396 7.06396C6.07633 8.06364 5.23324 9.15365 4.53467 10.334C3.8361 11.5143 3.28809 12.8031 2.89062 14.2002C2.49316 15.5973 2.30046 17.0306 2.3125 18.5C2.3125 19.9814 2.50521 21.4087 2.89062 22.7817C3.27604 24.1548 3.81803 25.4435 4.5166 26.6479C5.21517 27.8524 6.06429 28.9484 7.06396 29.936C8.06364 30.9237 9.15365 31.7668 10.334 32.4653C11.5143 33.1639 12.8031 33.7119 14.2002 34.1094C15.5973 34.5068 17.0306 34.6995 18.5 34.6875Z" fill="#158AFF"/>
</g>
<defs>
<clipPath id="clip0_5730_11684">
<rect width="37" height="37" fill="white"/>
</clipPath>
</defs>
</svg>
