<?xml version="1.0" encoding="UTF-8" standalone="no"?>
<svg
   viewBox="0 0 400 400"
   version="1.1"
   id="svg11893"
   sodipodi:docname="features_ITSM_integrations_zabbix.svg"
   inkscape:version="1.2.1 (9c6d41e410, 2022-07-14)"
   xmlns:inkscape="http://www.inkscape.org/namespaces/inkscape"
   xmlns:sodipodi="http://sodipodi.sourceforge.net/DTD/sodipodi-0.dtd"
   xmlns:xlink="http://www.w3.org/1999/xlink"
   xmlns="http://www.w3.org/2000/svg"
   xmlns:svg="http://www.w3.org/2000/svg">
  <sodipodi:namedview
     id="namedview11895"
     pagecolor="#ffffff"
     bordercolor="#000000"
     borderopacity="0.25"
     inkscape:showpageshadow="2"
     inkscape:pageopacity="0.0"
     inkscape:pagecheckerboard="0"
     inkscape:deskcolor="#d1d1d1"
     showgrid="false"
     inkscape:zoom="5.9184838"
     inkscape:cx="227.59208"
     inkscape:cy="199.37539"
     inkscape:window-width="1920"
     inkscape:window-height="1017"
     inkscape:window-x="1912"
     inkscape:window-y="-8"
     inkscape:window-maximized="1"
     inkscape:current-layer="svg11893" />
  <defs
     id="defs11760">
    <style
       id="style11758">.cls-1,.cls-3,.cls-4,.cls-6{fill:none;stroke-linecap:round;stroke-linejoin:round;}.cls-1{stroke:#d62027;stroke-width:3.7px;}.cls-2{fill:#d62128;}.cls-3{stroke:#3e4c70;}.cls-3,.cls-4,.cls-6{stroke-width:2px;}.cls-4,.cls-6{stroke:#158aff;}.cls-4{stroke-dasharray:6.33 4.22;}.cls-5{fill:#3e4c70;}</style>
    <clipPath
       id="SVGID_2_">
			<use
   xlink:href="#SVGID_1_"
   style="overflow:visible"
   id="use5534" />

		</clipPath>
    <clipPath
       id="clipPath13178">
			<use
   xlink:href="#SVGID_1_"
   style="overflow:visible"
   id="use13176" />

		</clipPath>
    <clipPath
       id="clipPath13182">
			<use
   xlink:href="#SVGID_1_"
   style="overflow:visible"
   id="use13180" />

		</clipPath>
    <clipPath
       id="clipPath13186">
			<use
   xlink:href="#SVGID_1_"
   style="overflow:visible"
   id="use13184" />

		</clipPath>
    <clipPath
       id="clipPath13190">
			<use
   xlink:href="#SVGID_1_"
   style="overflow:visible"
   id="use13188" />

		</clipPath>
    <clipPath
       id="clipPath13194">
			<use
   xlink:href="#SVGID_1_"
   style="overflow:visible"
   id="use13192" />

		</clipPath>
    <clipPath
       id="clipPath13198">
			<use
   xlink:href="#SVGID_1_"
   style="overflow:visible"
   id="use13196" />

		</clipPath>
    <rect
       id="SVGID_1_"
       y="0"
       width="168"
       height="44"
       x="0" />
  </defs>
  <path
     class="cls-1"
     d="m 158.9,223.7 24.9,-42.6 a 36.1,36.1 0 1 1 52.6,-18.4"
     id="path11762" />
  <path
     class="cls-1"
     d="m 235.7,234.8 h -47.2 a 36.1,36.1 0 1 1 -36.1,-36"
     id="path11764" />
  <path
     class="cls-1"
     d="m 209.4,161.9 22,41.2 a 36.1,36.1 0 1 1 -10.2,55.3"
     id="path11766" />
  <circle
     class="cls-1"
     cx="202.5"
     cy="150.3"
     r="12.9"
     id="circle11768" />
  <circle
     class="cls-1"
     cx="248.5"
     cy="234.8"
     r="12.9"
     id="circle11770" />
  <circle
     class="cls-1"
     cx="152.39999"
     cy="234.8"
     r="12.9"
     id="circle11772" />
  <path
     class="cls-3"
     d="m 331.5,305.1 -21,21 v 10.5 l 6.9,-6.9 14.5,10.4 9.6,-40.8 a 2.5,2.5 0 0 0 -3.3,-2.9 l -50,19.3 15.5,5.6 z"
     id="path11776" />
  <path
     class="cls-3"
     d="m 388.6,201.4 a 23.5,23.5 0 1 1 -23.5,-23.5 h 1.9 v 0.2 a 4.4,4.4 0 0 1 -3.5,2.9 17.2,17.2 0 0 0 1,34 17.2,17.2 0 0 0 19.2,-17 16.9,16.9 0 0 0 -5,-12.1 4.4,4.4 0 0 1 -1.1,-4.5 v 0 a 23.5,23.5 0 0 1 11,20 z"
     id="path11778" />
  <path
     class="cls-3"
     d="m 359.8,199.5 v 0 a 7.6,7.6 0 0 1 1.4,-8.7 l 11.6,-11.8 1.6,16.5 a 7.7,7.7 0 0 1 -4.4,7.6 v 0 a 7.5,7.5 0 0 1 -10.2,-3.6 z"
     id="path11780" />
  <rect
     class="cls-3"
     x="328.10001"
     y="66.199997"
     width="9.1000004"
     height="22.950001"
     rx="4.5999999"
     id="rect11782" />
  <path
     class="cls-3"
     d="m 346.2,80.3 v 0 a 4.4,4.4 0 0 1 4.4,4.4 v 0 a 4.4,4.4 0 0 1 -4.4,4.4 h -4.4 v -4.3 a 4.4,4.4 0 0 1 4.4,-4.4 z"
     id="path11784" />
  <rect
     class="cls-3"
     x="-88.900009"
     y="300.5"
     width="9.1000004"
     height="22.950001"
     rx="4.5999999"
     transform="rotate(-90)"
     id="rect11786" />
  <path
     class="cls-3"
     d="m 314.6,70.9 v 0 a 4.4,4.4 0 0 1 4.4,-4.4 v 0 a 4.4,4.4 0 0 1 4.4,4.4 v 4.4 H 319 a 4.4,4.4 0 0 1 -4.4,-4.4 z"
     id="path11788" />
  <rect
     class="cls-3"
     x="-322.80002"
     y="-116.5"
     width="9.1000004"
     height="22.950001"
     rx="4.5999999"
     transform="scale(-1)"
     id="rect11790" />
  <path
     class="cls-3"
     d="m 304.8,102.4 v 0 A 4.4,4.4 0 0 1 300.4,98 v 0 a 4.4,4.4 0 0 1 4.4,-4.4 h 4.4 V 98 a 4.4,4.4 0 0 1 -4.4,4.4 z"
     id="path11792" />
  <rect
     class="cls-3"
     x="93.900002"
     y="-350.60001"
     width="9.1000004"
     height="22.950001"
     rx="4.5999999"
     transform="rotate(90)"
     id="rect11794" />
  <path
     class="cls-3"
     d="m 336.5,111.9 v 0 a 4.4,4.4 0 0 1 -4.4,4.4 v 0 a 4.4,4.4 0 0 1 -4.4,-4.4 v -4.4 h 4.4 a 4.4,4.4 0 0 1 4.4,4.4 z"
     id="path11796" />
  <path
     class="cls-3"
     d="m 73.8,71.1 a 11.2,11.2 0 1 1 -22.4,0 z"
     id="path11798" />
  <polygon
     class="cls-3"
     points="80.2,98.8 102.6,71.1 80.2,71.1 "
     id="polygon11800" />
  <path
     class="cls-3"
     d="m 80.2,111.7 a 11.2,11.2 0 1 1 22.4,0 z"
     id="path11802" />
  <polygon
     class="cls-3"
     points="73.8,84 51.4,111.7 73.8,111.7 "
     id="polygon11804" />
  <path
     class="cls-4"
     d="M 36.5,171.8 A 165.4,165.4 0 0 1 56.8,117.2"
     id="path11806" />
  <path
     class="cls-4"
     d="M 56,284.4 A 163.6,163.6 0 0 1 36.3,229.7"
     id="path11808" />
  <path
     class="cls-4"
     d="M 166.9,364.6 A 165.9,165.9 0 0 1 103.4,336.8"
     id="path11810" />
  <path
     class="cls-4"
     d="m 302.2,333.3 -4.3,3.2 A 166.1,166.1 0 0 1 236.8,364 l -4.6,1"
     id="path11812" />
  <path
     class="cls-4"
     d="m 363.8,234.1 a 167,167 0 0 1 -21.3,54.4"
     id="path11814" />
  <path
     class="cls-4"
     d="m 343.4,115.9 a 166.6,166.6 0 0 1 20.9,55.2"
     id="path11816" />
  <path
     class="cls-4"
     d="m 234,38.2 a 166,166 0 0 1 71.4,33.9"
     id="path11818" />
  <path
     class="cls-4"
     d="M 104.6,65.2 A 165.2,165.2 0 0 1 166.8,38.3"
     id="path11820" />
  <path
     class="cls-3"
     d="m 57.5,226.6 -11.7,-8.9 v 4.7 H 16.5 a 5.1,5.1 0 0 1 -5.1,-5.1 v -36 a 5,5 0 0 1 5.1,-5 h 36 a 5,5 0 0 1 5,5 z"
     id="path11822" />
  <ellipse
     class="cls-3"
     cx="29.200001"
     cy="200.8"
     rx="2.7"
     ry="3"
     id="ellipse11824" />
  <ellipse
     class="cls-3"
     cx="39.799999"
     cy="200.8"
     rx="2.7"
     ry="3"
     id="ellipse11826" />
  <path
     class="cls-3"
     d="m 34.3,189 a 12.9,12.9 0 0 0 -3.7,0.4 l -1.1,-1.7 -6.7,2.1 a 29,29 0 0 0 -4.4,17.9 22.2,22.2 0 0 0 7.9,4 l 2.3,-3.5 a 15.7,15.7 0 0 0 5.7,0.9 15.4,15.4 0 0 0 5.6,-0.9 l 2.3,3.5 a 22.2,22.2 0 0 0 7.9,-4 29,29 0 0 0 -4.4,-17.9 l -6.7,-2.1 -1.1,1.7 A 12.4,12.4 0 0 0 34.3,189 Z"
     id="path11828" />
  <line
     class="cls-3"
     x1="26.299999"
     y1="207.2"
     x2="28.6"
     y2="208.2"
     id="line11830" />
  <line
     class="cls-3"
     x1="39.900002"
     y1="208.2"
     x2="42.400002"
     y2="207.2"
     id="line11832" />
  <path
     class="cls-3"
     d="m 74.9,350 h -9.7 c 0,-6.1 2.4,-11.8 5.9,-17 a 30.7,30.7 0 0 0 2.6,2.5 44.5,44.5 0 0 1 4.3,4.6 c -3.6,5.8 -3.1,9.9 -3.1,9.9 z"
     id="path11834" />
  <path
     class="cls-3"
     d="m 104.9,301 -10.2,3.5 c 0,0 -5.4,10 -13.1,16.9 l -1.1,0.9 -1,-0.9 C 71.7,314.5 66.4,304.5 66.4,304.5 L 56.2,301 c 0,0 -1.5,11.2 20.9,31.9 10.1,9.4 9,17.1 9,17.1 h 9.8 c 0,-7.5 -3.7,-14.5 -8.5,-20.4 C 106.2,311 104.9,301 104.9,301 Z"
     id="path11836" />
  <path
     class="cls-3"
     d="m 85.8,306.7 a 24.8,24.8 0 0 1 -4.9,6.3 0.8,0.8 0 0 1 -0.4,0.4 L 80.1,313 a 24.8,24.8 0 0 1 -4.9,-6.3 z"
     id="path11838" />
  <circle
     class="cls-3"
     cx="80.5"
     cy="290.70001"
     r="4.3000002"
     id="circle11840" />
  <circle
     class="cls-3"
     cx="94.400002"
     cy="295.10001"
     r="4.3000002"
     id="circle11842" />
  <circle
     class="cls-3"
     cx="66.699997"
     cy="295.10001"
     r="4.3000002"
     id="circle11844" />
  <circle
     class="cls-3"
     cx="200.5"
     cy="21.5"
     r="12.6"
     id="circle11846" />
  <path
     class="cls-3"
     d="M 226.1,40.1 A 55.6,55.6 0 0 1 200.5,64.2 52,52 0 0 1 187.4,55.7 57,57 0 0 0 200.6,47 c 8.2,-7 11.5,-13.8 11.5,-13.8 z"
     id="path11848" />
  <path
     class="cls-3"
     d="m 200.6,47 a 57,57 0 0 1 -13.2,8.7 51.4,51.4 0 0 1 -12.6,-15.6 l 14,-6.9 c 0,0 2.8,6.8 11.8,13.8 z"
     id="path11850" />
  <path
     class="cls-5"
     d="m 188.9,364.7 v 3.7 h -3.8 v -3.7 h 3.8 m 0,-2 h -3.8 a 2,2 0 0 0 -2,2 v 3.7 a 2,2 0 0 0 2,2 h 3.8 a 2,2 0 0 0 2,-2 v -3.7 a 2,2 0 0 0 -2,-2 z"
     id="path11852" />
  <path
     class="cls-5"
     d="m 202.3,364.7 v 3.7 h -3.7 v -3.7 h 3.7 m 0,-2 h -3.7 a 2,2 0 0 0 -2,2 v 3.7 a 2,2 0 0 0 2,2 h 3.7 a 2,2 0 0 0 2,-2 v -3.7 a 2,2 0 0 0 -2,-2 z"
     id="path11854" />
  <path
     class="cls-5"
     d="m 215.8,364.7 v 3.7 h -3.7 v -3.7 h 3.7 m 0,-2 h -3.7 a 1.9,1.9 0 0 0 -2,2 v 3.7 a 1.9,1.9 0 0 0 2,2 h 3.7 a 2,2 0 0 0 2,-2 v -3.7 a 2,2 0 0 0 -2,-2 z"
     id="path11856" />
  <circle
     class="cls-3"
     cx="200.5"
     cy="366.60001"
     r="24.6"
     id="circle11858" />
  <line
     class="cls-6"
     x1="200.5"
     y1="96.900002"
     x2="200.5"
     y2="75.599998"
     id="line11860" />
  <polyline
     class="cls-6"
     points="192.7 83.4 200.5 75.6 208.2 83.4"
     id="polyline11862" />
  <line
     class="cls-6"
     x1="200.5"
     y1="303.10001"
     x2="200.5"
     y2="324.39999"
     id="line11864" />
  <polyline
     class="cls-6"
     points="208.2 316.6 200.5 324.4 192.7 316.6"
     id="polyline11866" />
  <line
     class="cls-6"
     x1="303.60001"
     y1="200"
     x2="324.79999"
     y2="200"
     id="line11868" />
  <polyline
     class="cls-6"
     points="317 192.2 324.8 200 317 207.8"
     id="polyline11870" />
  <line
     class="cls-6"
     x1="97.300003"
     y1="200"
     x2="76.099998"
     y2="200"
     id="line11872" />
  <polyline
     class="cls-6"
     points="83.9 207.8 76.1 200 83.9 192.2"
     id="polyline11874" />
  <line
     class="cls-6"
     x1="273.39999"
     y1="127.1"
     x2="288.39999"
     y2="112.1"
     id="line11876" />
  <polyline
     class="cls-6"
     points="277.4 112.1 288.4 112.1 288.4 123"
     id="polyline11878" />
  <line
     class="cls-6"
     x1="127.5"
     y1="272.89999"
     x2="112.5"
     y2="287.89999"
     id="line11880" />
  <polyline
     class="cls-6"
     points="123.5 287.9 112.5 287.9 112.5 277"
     id="polyline11882" />
  <line
     class="cls-6"
     x1="273.39999"
     y1="272.89999"
     x2="288.39999"
     y2="287.89999"
     id="line11884" />
  <polyline
     class="cls-6"
     points="288.4 277 288.4 287.9 277.4 287.9"
     id="polyline11886" />
  <line
     class="cls-6"
     x1="127.5"
     y1="127.1"
     x2="112.5"
     y2="112.1"
     id="line11888" />
  <polyline
     class="cls-6"
     points="112.5 123 112.5 112.1 123.5 112.1"
     id="polyline11890" />
</svg>
