<svg width="42" height="42" viewBox="0 0 42 42" fill="none" xmlns="http://www.w3.org/2000/svg">
<g id="carbon:ibm-dynamic-route-server">
<path id="Vector" d="M38.0625 9.1875C39.5122 9.1875 40.6875 8.01225 40.6875 6.5625C40.6875 5.11275 39.5122 3.9375 38.0625 3.9375C36.6128 3.9375 35.4375 5.11275 35.4375 6.5625C35.4375 8.01225 36.6128 9.1875 38.0625 9.1875Z" fill="#158AFF"/>
<path id="Vector_2" d="M38.0625 38.0625C39.5122 38.0625 40.6875 36.8872 40.6875 35.4375C40.6875 33.9878 39.5122 32.8125 38.0625 32.8125C36.6128 32.8125 35.4375 33.9878 35.4375 35.4375C35.4375 36.8872 36.6128 38.0625 38.0625 38.0625Z" fill="#158AFF"/>
<path id="Vector_3" d="M9.1875 17.0625H1.3125V24.9375H9.1875V17.0625ZM6.5625 22.3125H3.9375V19.6875H6.5625V22.3125Z" fill="#158AFF"/>
<path id="Vector_4" d="M22.9672 8.76356C22.1069 7.67142 21.0106 6.78804 19.7605 6.17958C18.5104 5.57111 17.1388 5.25332 15.7485 5.25C14.1364 5.25325 12.5533 5.67899 11.1571 6.48478C9.76081 7.29057 8.60015 8.44826 7.79078 9.84244L6.26172 12.4924L8.53497 13.8049L10.064 11.1562C11.2335 9.13238 13.4122 7.875 15.7485 7.875C18.0847 7.875 20.2622 9.13238 21.4329 11.1562L21.4539 11.1864L18.9168 15.5807C18.1948 16.8267 17.1587 17.8617 15.9119 18.5823C14.6651 19.3029 13.2511 19.684 11.811 19.6875V22.3125C13.2511 22.316 14.6651 22.6971 15.9119 23.4177C17.1587 24.1383 18.1948 25.1733 18.9168 26.4193L21.4539 30.8123C21.4473 30.8228 21.4382 30.8333 21.4329 30.8438C20.2622 32.8676 18.0834 34.125 15.7485 34.125C13.4135 34.125 11.2348 32.8676 10.0653 30.8438L8.53497 28.1951L6.26172 29.5076L7.79078 32.1589C8.60031 33.5528 9.76104 34.7102 11.1573 35.5158C12.5535 36.3213 14.1365 36.7469 15.7485 36.75C17.1387 36.7462 18.5101 36.4282 19.7601 35.8198C21.0102 35.2113 22.1065 34.3282 22.9672 33.2364C23.8274 34.3288 24.9236 35.2123 26.1738 35.8208C27.4239 36.4293 28.7956 36.747 30.186 36.75H32.811V34.125H30.186C29.0627 34.1219 27.9589 33.8312 26.9799 33.2804C26.0009 32.7297 25.1793 31.9374 24.5934 30.9789C25.2059 30.3183 25.9477 29.7906 26.7728 29.4287C27.5978 29.0668 28.4884 28.8783 29.3893 28.875H32.811V26.25H29.3893C27.1118 26.2586 24.9185 27.1116 23.2337 28.644L21.1901 25.1055C20.1791 23.367 18.7039 21.9444 16.9297 20.9974C18.7035 20.051 20.1787 18.6294 21.1901 16.8919L23.2337 13.3534C24.9184 14.886 27.1118 15.739 29.3893 15.7474H32.811V13.1224H29.3893C28.4884 13.1194 27.5977 12.9314 26.7725 12.5699C25.9472 12.2084 25.2051 11.6813 24.5921 11.0211C25.1781 10.0625 25.9999 9.26998 26.9791 8.71923C27.9584 8.16849 29.0625 7.87783 30.186 7.875H32.811V5.25H30.186C28.7956 5.25323 27.424 5.57098 26.1739 6.17945C24.9238 6.78792 23.8275 7.67134 22.9672 8.76356Z" fill="#158AFF"/>
</g>
</svg>
