<svg width="1647" height="243" viewBox="0 0 1647 243" fill="none" xmlns="http://www.w3.org/2000/svg">
<path d="M43.7986 21.8993C43.7986 33.994 33.994 43.7986 21.8993 43.7986C9.80465 43.7986 0 33.994 0 21.8993C0 9.80466 9.80465 0 21.8993 0C33.994 0 43.7986 9.80466 43.7986 21.8993Z" fill="#E5E5E5"/>
<path d="M92.9504 21.8993C92.9504 33.994 83.1458 43.7986 71.0511 43.7986C58.9564 43.7986 49.1518 33.994 49.1518 21.8993C49.1518 9.80466 58.9564 0 71.0511 0C83.1458 0 92.9504 9.80466 92.9504 21.8993Z" fill="#E5E5E5"/>
<path d="M135.411 21.8993C135.411 30.2984 128.602 37.1072 120.203 37.1072C111.804 37.1072 104.995 30.2984 104.995 21.8993C104.995 13.5002 111.804 6.69145 120.203 6.69145C128.602 6.69145 135.411 13.5002 135.411 21.8993Z" fill="#E5E5E5"/>
<path d="M175.902 21.8993C175.902 25.5154 172.971 28.4468 169.355 28.4468C165.739 28.4468 162.807 25.5154 162.807 21.8993C162.807 18.2832 165.739 15.3518 169.355 15.3518C172.971 15.3518 175.902 18.2832 175.902 21.8993Z" fill="#E5E5E5"/>
<path d="M43.7986 71.5378C43.7986 83.6324 33.994 93.4371 21.8993 93.4371C9.80465 93.4371 0 83.6324 0 71.5378C0 59.4431 9.80465 49.6384 21.8993 49.6384C33.994 49.6384 43.7986 59.4431 43.7986 71.5378Z" fill="#E5E5E5"/>
<path d="M92.9504 71.5378C92.9504 83.6324 83.1458 93.4371 71.0511 93.4371C58.9564 93.4371 49.1518 83.6324 49.1518 71.5378C49.1518 59.4431 58.9564 49.6384 71.0511 49.6384C83.1458 49.6384 92.9504 59.4431 92.9504 71.5378Z" fill="#E5E5E5"/>
<path d="M138.452 71.5378C138.452 81.6166 130.282 89.7872 120.203 89.7872C110.124 89.7872 101.953 81.6166 101.953 71.5378C101.953 61.4589 110.124 53.2883 120.203 53.2883C130.282 53.2883 138.452 61.4589 138.452 71.5378Z" fill="#E5E5E5"/>
<path d="M184.563 71.5378C184.563 79.9368 177.754 86.7456 169.355 86.7456C160.956 86.7456 154.147 79.9368 154.147 71.5378C154.147 63.1387 160.956 56.3299 169.355 56.3299C177.754 56.3299 184.563 63.1387 184.563 71.5378Z" fill="#E5E5E5"/>
<path d="M225.054 71.5378C225.054 75.1538 222.123 78.0852 218.506 78.0852C214.89 78.0852 211.959 75.1538 211.959 71.5378C211.959 67.9217 214.89 64.9903 218.506 64.9903C222.123 64.9903 225.054 67.9217 225.054 71.5378Z" fill="#E5E5E5"/>
<path d="M43.7986 121.176C43.7986 133.271 33.994 143.076 21.8993 143.076C9.80465 143.076 0 133.271 0 121.176C0 109.082 9.80465 99.2769 21.8993 99.2769C33.994 99.2769 43.7986 109.082 43.7986 121.176Z" fill="#E5E5E5"/>
<path d="M92.9504 121.176C92.9504 133.271 83.1458 143.076 71.0511 143.076C58.9564 143.076 49.1518 133.271 49.1518 121.176C49.1518 109.082 58.9564 99.2769 71.0511 99.2769C83.1458 99.2769 92.9504 109.082 92.9504 121.176Z" fill="#E5E5E5"/>
<path d="M142.102 121.176C142.102 133.271 132.298 143.076 120.203 143.076C108.108 143.076 98.3036 133.271 98.3036 121.176C98.3036 109.082 108.108 99.2769 120.203 99.2769C132.298 99.2769 142.102 109.082 142.102 121.176Z" fill="#E5E5E5"/>
<path d="M187.604 121.176C187.604 131.255 179.434 139.426 169.355 139.426C159.276 139.426 151.105 131.255 151.105 121.176C151.105 111.097 159.276 102.927 169.355 102.927C179.434 102.927 187.604 111.097 187.604 121.176Z" fill="#E5E5E5"/>
<path d="M230.673 121.176C230.673 127.895 225.226 133.342 218.506 133.342C211.787 133.342 206.34 127.895 206.34 121.176C206.34 114.457 211.787 109.01 218.506 109.01C225.226 109.01 230.673 114.457 230.673 121.176Z" fill="#E5E5E5"/>
<path d="M43.7986 170.815C43.7986 182.909 33.994 192.714 21.8993 192.714C9.80465 192.714 0 182.909 0 170.815C0 158.72 9.80465 148.915 21.8993 148.915C33.994 148.915 43.7986 158.72 43.7986 170.815Z" fill="#E5E5E5"/>
<path d="M92.9504 170.815C92.9504 182.909 83.1458 192.714 71.0511 192.714C58.9564 192.714 49.1518 182.909 49.1518 170.815C49.1518 158.72 58.9564 148.915 71.0511 148.915C83.1458 148.915 92.9504 158.72 92.9504 170.815Z" fill="#E5E5E5"/>
<path d="M138.452 170.815C138.452 180.894 130.282 189.064 120.203 189.064C110.124 189.064 101.953 180.894 101.953 170.815C101.953 160.736 110.124 152.565 120.203 152.565C130.282 152.565 138.452 160.736 138.452 170.815Z" fill="#E5E5E5"/>
<path d="M184.563 170.815C184.563 179.214 177.754 186.022 169.355 186.022C160.956 186.022 154.147 179.214 154.147 170.815C154.147 162.416 160.956 155.607 169.355 155.607C177.754 155.607 184.563 162.416 184.563 170.815Z" fill="#E5E5E5"/>
<path d="M225.054 170.815C225.054 174.431 222.123 177.362 218.506 177.362C214.89 177.362 211.959 174.431 211.959 170.815C211.959 167.199 214.89 164.267 218.506 164.267C222.123 164.267 225.054 167.199 225.054 170.815Z" fill="#E5E5E5"/>
<path d="M43.7986 220.453C43.7986 232.548 33.994 242.352 21.8993 242.352C9.80465 242.352 0 232.548 0 220.453C0 208.358 9.80465 198.554 21.8993 198.554C33.994 198.554 43.7986 208.358 43.7986 220.453Z" fill="#E5E5E5"/>
<path d="M92.9504 220.453C92.9504 232.548 83.1458 242.352 71.0511 242.352C58.9564 242.352 49.1518 232.548 49.1518 220.453C49.1518 208.358 58.9564 198.554 71.0511 198.554C83.1458 198.554 92.9504 208.358 92.9504 220.453Z" fill="#E5E5E5"/>
<path d="M135.411 220.453C135.411 228.852 128.602 235.661 120.203 235.661C111.804 235.661 104.995 228.852 104.995 220.453C104.995 212.054 111.804 205.245 120.203 205.245C128.602 205.245 135.411 212.054 135.411 220.453Z" fill="#E5E5E5"/>
<path d="M175.902 220.453C175.902 224.069 172.971 227.001 169.355 227.001C165.739 227.001 162.807 224.069 162.807 220.453C162.807 216.837 165.739 213.906 169.355 213.906C172.971 213.906 175.902 216.837 175.902 220.453Z" fill="#E5E5E5"/>
<path d="M371.173 21.8993C371.173 25.1804 368.513 27.8403 365.232 27.8403C361.951 27.8403 359.291 25.1804 359.291 21.8993C359.291 18.6182 361.951 15.9583 365.232 15.9583C368.513 15.9583 371.173 18.6182 371.173 21.8993Z" fill="#E5E5E5"/>
<path d="M427.543 21.8993C427.543 28.8985 421.869 34.5725 414.87 34.5725C407.871 34.5725 402.197 28.8985 402.197 21.8993C402.197 14.9001 407.871 9.2261 414.87 9.2261C421.869 9.2261 427.543 14.9001 427.543 21.8993Z" fill="#E5E5E5"/>
<path d="M470.45 21.8993C470.45 25.1804 467.79 27.8403 464.509 27.8403C461.228 27.8403 458.568 25.1804 458.568 21.8993C458.568 18.6182 461.228 15.9583 464.509 15.9583C467.79 15.9583 470.45 18.6182 470.45 21.8993Z" fill="#E5E5E5"/>
<path d="M321.534 71.5378C321.534 74.8189 318.874 77.4787 315.593 77.4787C312.312 77.4787 309.652 74.8189 309.652 71.5378C309.652 68.2566 312.312 65.5968 315.593 65.5968C318.874 65.5968 321.534 68.2566 321.534 71.5378Z" fill="#E5E5E5"/>
<path d="M380.44 71.5378C380.44 79.9368 373.631 86.7456 365.232 86.7456C356.833 86.7456 350.024 79.9368 350.024 71.5378C350.024 63.1387 356.833 56.3299 365.232 56.3299C373.631 56.3299 380.44 63.1387 380.44 71.5378Z" fill="#E5E5E5"/>
<path d="M433.12 71.5378C433.12 81.6166 424.949 89.7872 414.87 89.7872C404.791 89.7872 396.621 81.6166 396.621 71.5378C396.621 61.4589 404.791 53.2883 414.87 53.2883C424.949 53.2883 433.12 61.4589 433.12 71.5378Z" fill="#E5E5E5"/>
<path d="M479.717 71.5378C479.717 79.9368 472.908 86.7456 464.509 86.7456C456.11 86.7456 449.301 79.9368 449.301 71.5378C449.301 63.1387 456.11 56.3299 464.509 56.3299C472.908 56.3299 479.717 63.1387 479.717 71.5378Z" fill="#E5E5E5"/>
<path d="M520.088 71.5378C520.088 74.8189 517.428 77.4787 514.147 77.4787C510.866 77.4787 508.206 74.8189 508.206 71.5378C508.206 68.2566 510.866 65.5968 514.147 65.5968C517.428 65.5968 520.088 68.2566 520.088 71.5378Z" fill="#E5E5E5"/>
<path d="M328.267 121.176C328.267 128.175 322.593 133.849 315.593 133.849C308.594 133.849 302.92 128.175 302.92 121.176C302.92 114.177 308.594 108.503 315.593 108.503C322.593 108.503 328.267 114.177 328.267 121.176Z" fill="#E5E5E5"/>
<path d="M383.481 121.176C383.481 131.255 375.311 139.426 365.232 139.426C355.153 139.426 346.982 131.255 346.982 121.176C346.982 111.097 355.153 102.927 365.232 102.927C375.311 102.927 383.481 111.097 383.481 121.176Z" fill="#E5E5E5"/>
<path d="M436.77 121.176C436.77 133.271 426.965 143.076 414.87 143.076C402.776 143.076 392.971 133.271 392.971 121.176C392.971 109.082 402.776 99.2769 414.87 99.2769C426.965 99.2769 436.77 109.082 436.77 121.176Z" fill="#E5E5E5"/>
<path d="M482.758 121.176C482.758 131.255 474.588 139.426 464.509 139.426C454.43 139.426 446.259 131.255 446.259 121.176C446.259 111.097 454.43 102.927 464.509 102.927C474.588 102.927 482.758 111.097 482.758 121.176Z" fill="#E5E5E5"/>
<path d="M526.82 121.176C526.82 128.175 521.146 133.849 514.147 133.849C507.148 133.849 501.474 128.175 501.474 121.176C501.474 114.177 507.148 108.503 514.147 108.503C521.146 108.503 526.82 114.177 526.82 121.176Z" fill="#E5E5E5"/>
<path d="M321.534 170.815C321.534 174.096 318.874 176.756 315.593 176.756C312.312 176.756 309.652 174.096 309.652 170.815C309.652 167.533 312.312 164.874 315.593 164.874C318.874 164.874 321.534 167.533 321.534 170.815Z" fill="#E5E5E5"/>
<path d="M380.44 170.815C380.44 179.214 373.631 186.022 365.232 186.022C356.833 186.022 350.024 179.214 350.024 170.815C350.024 162.416 356.833 155.607 365.232 155.607C373.631 155.607 380.44 162.416 380.44 170.815Z" fill="#E5E5E5"/>
<path d="M433.12 170.815C433.12 180.894 424.949 189.064 414.87 189.064C404.791 189.064 396.621 180.894 396.621 170.815C396.621 160.736 404.791 152.565 414.87 152.565C424.949 152.565 433.12 160.736 433.12 170.815Z" fill="#E5E5E5"/>
<path d="M479.717 170.815C479.717 179.214 472.908 186.022 464.509 186.022C456.11 186.022 449.301 179.214 449.301 170.815C449.301 162.416 456.11 155.607 464.509 155.607C472.908 155.607 479.717 162.416 479.717 170.815Z" fill="#E5E5E5"/>
<path d="M520.088 170.815C520.088 174.096 517.428 176.756 514.147 176.756C510.866 176.756 508.206 174.096 508.206 170.815C508.206 167.533 510.866 164.874 514.147 164.874C517.428 164.874 520.088 167.533 520.088 170.815Z" fill="#E5E5E5"/>
<path d="M371.173 220.453C371.173 223.734 368.513 226.394 365.232 226.394C361.951 226.394 359.291 223.734 359.291 220.453C359.291 217.172 361.951 214.512 365.232 214.512C368.513 214.512 371.173 217.172 371.173 220.453Z" fill="#E5E5E5"/>
<path d="M427.543 220.453C427.543 227.452 421.869 233.126 414.87 233.126C407.871 233.126 402.197 227.452 402.197 220.453C402.197 213.454 407.871 207.78 414.87 207.78C421.869 207.78 427.543 213.454 427.543 220.453Z" fill="#E5E5E5"/>
<path d="M470.45 220.453C470.45 223.734 467.79 226.394 464.509 226.394C461.228 226.394 458.568 223.734 458.568 220.453C458.568 217.172 461.228 214.512 464.509 214.512C467.79 214.512 470.45 217.172 470.45 220.453Z" fill="#E5E5E5"/>
<path d="M654.835 188.176V55.5621H699.407C712.519 55.5621 723.731 58.1966 733.043 63.4656C742.356 68.6734 749.494 76.2093 754.456 86.0734C759.48 95.8762 761.992 107.731 761.992 121.639V121.823C761.992 135.731 759.511 147.647 754.548 157.573C749.586 167.498 742.448 175.095 733.135 180.364C723.823 185.572 712.58 188.176 699.407 188.176H654.835ZM671.377 173.288H698.305C708.352 173.288 716.838 171.297 723.761 167.314C730.746 163.332 736.045 157.542 739.66 149.945C743.275 142.286 745.082 132.974 745.082 122.007V121.823C745.082 110.795 743.275 101.452 739.66 93.7931C736.045 86.1346 730.746 80.3448 723.761 76.4237C716.838 72.4413 708.352 70.4501 698.305 70.4501H671.377V173.288ZM804.271 190.014C797.96 190.014 792.415 188.819 787.636 186.43C782.858 184.04 779.12 180.671 776.424 176.321C773.79 171.971 772.473 166.916 772.473 161.157V160.973C772.473 155.52 773.821 150.803 776.516 146.82C779.273 142.838 783.225 139.682 788.372 137.354C793.579 135.026 799.829 133.648 807.119 133.219L842.502 131.197V143.604L808.958 145.625C802.586 145.993 797.623 147.525 794.069 150.221C790.577 152.916 788.831 156.5 788.831 160.973V161.157C788.831 165.752 790.547 169.397 793.978 172.093C797.47 174.789 802.096 176.137 807.855 176.137C812.879 176.137 817.382 175.095 821.364 173.012C825.408 170.868 828.594 167.957 830.922 164.281C833.311 160.605 834.506 156.47 834.506 151.875V123.661C834.506 117.841 832.668 113.276 828.992 109.968C825.377 106.598 820.231 104.913 813.553 104.913C807.426 104.913 802.463 106.261 798.665 108.957C794.927 111.591 792.599 115.053 791.68 119.342L791.496 120.169H776.057L776.149 119.158C776.639 113.889 778.416 109.11 781.479 104.821C784.604 100.533 788.892 97.1322 794.345 94.6202C799.798 92.0469 806.262 90.7603 813.736 90.7603C821.272 90.7603 827.767 92.0469 833.219 94.6202C838.734 97.1934 842.992 100.839 845.994 105.556C848.996 110.213 850.497 115.727 850.497 122.099V188.176H834.506V172.644H834.138C832.3 176.137 829.85 179.2 826.786 181.835C823.723 184.408 820.261 186.43 816.402 187.9C812.603 189.309 808.559 190.014 804.271 190.014ZM898.106 190.014C889.344 190.014 882.789 187.931 878.439 183.765C874.089 179.598 871.914 172.951 871.914 163.822V105.832H857.945V92.5984H871.914V66.7741H888.456V92.5984H906.652V105.832H888.456V163.73C888.456 168.815 889.559 172.277 891.764 174.115C893.97 175.892 897.217 176.78 901.506 176.78C902.486 176.78 903.405 176.749 904.263 176.688C905.182 176.566 905.978 176.474 906.652 176.412V189.37C905.672 189.493 904.385 189.616 902.792 189.738C901.261 189.922 899.698 190.014 898.106 190.014ZM946.174 190.014C939.863 190.014 934.318 188.819 929.539 186.43C924.761 184.04 921.023 180.671 918.327 176.321C915.693 171.971 914.376 166.916 914.376 161.157V160.973C914.376 155.52 915.724 150.803 918.419 146.82C921.176 142.838 925.128 139.682 930.275 137.354C935.482 135.026 941.732 133.648 949.023 133.219L984.405 131.197V143.604L950.861 145.625C944.489 145.993 939.526 147.525 935.973 150.221C932.48 152.916 930.734 156.5 930.734 160.973V161.157C930.734 165.752 932.45 169.397 935.881 172.093C939.373 174.789 943.999 176.137 949.758 176.137C954.782 176.137 959.285 175.095 963.267 173.012C967.311 170.868 970.497 167.957 972.825 164.281C975.214 160.605 976.409 156.47 976.409 151.875V123.661C976.409 117.841 974.571 113.276 970.895 109.968C967.28 106.598 962.134 104.913 955.456 104.913C949.329 104.913 944.366 106.261 940.568 108.957C936.83 111.591 934.502 115.053 933.583 119.342L933.399 120.169H917.96L918.052 119.158C918.542 113.889 920.319 109.11 923.382 104.821C926.507 100.533 930.795 97.1322 936.248 94.6202C941.701 92.0469 948.165 90.7603 955.639 90.7603C963.175 90.7603 969.67 92.0469 975.123 94.6202C980.637 97.1934 984.895 100.839 987.897 105.556C990.899 110.213 992.4 115.727 992.4 122.099V188.176H976.409V172.644H976.042C974.204 176.137 971.753 179.2 968.689 181.835C965.626 184.408 962.164 186.43 958.305 187.9C954.506 189.309 950.462 190.014 946.174 190.014ZM1067.49 190.381C1054.93 190.381 1044.05 187.594 1034.86 182.018C1025.73 176.443 1018.69 168.54 1013.72 158.308C1008.76 148.076 1006.28 135.945 1006.28 121.915V121.731C1006.28 107.701 1008.76 95.6005 1013.72 85.4301C1018.75 75.1984 1025.83 67.2948 1034.95 61.7195C1044.14 56.1441 1054.99 53.3565 1067.49 53.3565C1079.99 53.3565 1090.8 56.1441 1099.93 61.7195C1109.06 67.2948 1116.1 75.1984 1121.07 85.4301C1126.03 95.6005 1128.51 107.701 1128.51 121.731V121.915C1128.51 135.945 1126.03 148.076 1121.07 158.308C1116.1 168.54 1109.06 176.443 1099.93 182.018C1090.86 187.594 1080.05 190.381 1067.49 190.381ZM1067.49 175.126C1076.62 175.126 1084.46 172.951 1091.01 168.601C1097.63 164.19 1102.72 158.001 1106.27 150.037C1109.82 142.072 1111.6 132.698 1111.6 121.915V121.731C1111.6 110.887 1109.79 101.482 1106.18 93.5174C1102.62 85.5526 1097.54 79.4258 1090.92 75.1371C1084.31 70.7871 1076.49 68.6121 1067.49 68.6121C1058.48 68.6121 1050.64 70.7871 1043.96 75.1371C1037.34 79.4258 1032.23 85.5526 1028.61 93.5174C1025 101.421 1023.19 110.825 1023.19 121.731V121.915C1023.19 132.759 1025 142.164 1028.61 150.129C1032.23 158.093 1037.34 164.251 1043.96 168.601C1050.58 172.951 1058.42 175.126 1067.49 175.126ZM1190.36 190.014C1185.83 190.014 1181.63 189.279 1177.77 187.808C1173.91 186.338 1170.48 184.285 1167.48 181.651C1164.54 178.955 1162.06 175.738 1160.04 172.001H1159.67V188.176H1143.68V55.5621H1159.67V108.589H1160.04C1162.06 104.913 1164.57 101.758 1167.57 99.1234C1170.63 96.4276 1174.13 94.3751 1178.05 92.966C1181.97 91.4955 1186.17 90.7603 1190.64 90.7603C1198.66 90.7603 1205.68 92.8128 1211.68 96.9177C1217.75 100.961 1222.47 106.69 1225.84 114.103C1229.27 121.517 1230.98 130.247 1230.98 140.295V140.387C1230.98 150.435 1229.3 159.196 1225.93 166.671C1222.56 174.084 1217.81 179.843 1211.68 183.948C1205.62 187.992 1198.51 190.014 1190.36 190.014ZM1187.24 175.861C1192.87 175.861 1197.75 174.452 1201.85 171.634C1205.96 168.754 1209.11 164.649 1211.32 159.319C1213.52 153.988 1214.62 147.678 1214.62 140.387V140.295C1214.62 133.004 1213.52 126.724 1211.32 121.455C1209.11 116.186 1205.96 112.112 1201.85 109.233C1197.75 106.353 1192.87 104.913 1187.24 104.913C1181.85 104.913 1177.07 106.384 1172.9 109.324C1168.8 112.265 1165.55 116.401 1163.16 121.731C1160.77 127 1159.58 133.188 1159.58 140.295V140.387C1159.58 147.494 1160.74 153.713 1163.07 159.043C1165.46 164.373 1168.74 168.509 1172.9 171.45C1177.07 174.391 1181.85 175.861 1187.24 175.861ZM1277.21 190.014C1269.74 190.014 1263.28 188.819 1257.82 186.43C1252.37 184.04 1248.05 180.701 1244.86 176.412C1241.74 172.124 1239.84 167.13 1239.17 161.432L1239.07 160.605H1255.07L1255.25 161.524C1256.23 166.303 1258.53 170.041 1262.14 172.736C1265.76 175.371 1270.81 176.688 1277.31 176.688C1281.66 176.688 1285.36 176.137 1288.43 175.034C1291.49 173.87 1293.85 172.246 1295.5 170.163C1297.16 168.019 1297.98 165.507 1297.98 162.627V162.535C1297.98 159.104 1296.94 156.347 1294.86 154.264C1292.78 152.181 1289.01 150.466 1283.55 149.118L1268.39 145.442C1262.39 143.971 1257.39 142.072 1253.41 139.744C1249.49 137.354 1246.55 134.444 1244.59 131.013C1242.63 127.582 1241.65 123.569 1241.65 118.974V118.882C1241.65 113.368 1243.12 108.497 1246.06 104.27C1249.06 100.042 1253.2 96.7339 1258.47 94.3445C1263.8 91.955 1269.89 90.7603 1276.75 90.7603C1283.74 90.7603 1289.8 92.0163 1294.95 94.5283C1300.16 96.979 1304.23 100.349 1307.17 104.637C1310.18 108.865 1311.86 113.644 1312.23 118.974L1312.32 120.169H1297.06L1296.97 119.525C1296.36 114.869 1294.31 111.132 1290.81 108.313C1287.38 105.495 1282.7 104.086 1276.75 104.086C1272.89 104.086 1269.55 104.668 1266.74 105.832C1263.92 106.996 1261.74 108.65 1260.21 110.795C1258.74 112.878 1258.01 115.329 1258.01 118.147V118.239C1258.01 120.383 1258.5 122.344 1259.48 124.121C1260.52 125.836 1262.14 127.337 1264.35 128.624C1266.55 129.91 1269.4 130.982 1272.89 131.84L1288.06 135.516C1297.74 137.844 1304.54 141.061 1308.46 145.166C1312.38 149.21 1314.34 154.632 1314.34 161.432V161.524C1314.34 167.1 1312.72 172.032 1309.47 176.321C1306.28 180.609 1301.87 183.979 1296.24 186.43C1290.66 188.819 1284.32 190.014 1277.21 190.014ZM1366.55 190.014C1357.42 190.014 1349.54 187.992 1342.93 183.948C1336.37 179.905 1331.32 174.207 1327.76 166.855C1324.27 159.441 1322.52 150.741 1322.52 140.755V140.663C1322.52 130.799 1324.3 122.129 1327.85 114.655C1331.41 107.119 1336.4 101.268 1342.83 97.1015C1349.27 92.8741 1356.83 90.7603 1365.53 90.7603C1374.23 90.7603 1381.71 92.7822 1387.96 96.8258C1394.27 100.808 1399.11 106.414 1402.48 113.644C1405.85 120.873 1407.53 129.267 1407.53 138.825V144.706H1330.52V132.208H1399.63L1391.54 143.787V137.63C1391.54 130.217 1390.41 124.09 1388.14 119.25C1385.94 114.41 1382.87 110.825 1378.95 108.497C1375.03 106.108 1370.53 104.913 1365.44 104.913C1360.36 104.913 1355.79 106.169 1351.75 108.681C1347.71 111.132 1344.52 114.808 1342.19 119.709C1339.86 124.549 1338.7 130.523 1338.7 137.63V143.787C1338.7 150.527 1339.83 156.286 1342.1 161.065C1344.43 165.844 1347.71 169.52 1351.93 172.093C1356.16 174.605 1361.15 175.861 1366.91 175.861C1370.96 175.861 1374.57 175.248 1377.76 174.023C1380.94 172.798 1383.61 171.113 1385.75 168.968C1387.9 166.824 1389.43 164.373 1390.35 161.616L1390.62 160.789H1406.34L1406.15 161.708C1405.36 165.629 1403.83 169.305 1401.56 172.736C1399.35 176.167 1396.51 179.2 1393.01 181.835C1389.52 184.408 1385.54 186.43 1381.07 187.9C1376.59 189.309 1371.75 190.014 1366.55 190.014ZM1419.94 188.176V92.5984H1435.93V108.773H1436.3C1437.89 103.259 1440.65 98.8783 1444.57 95.6311C1448.49 92.3839 1453.15 90.7603 1458.54 90.7603C1459.95 90.7603 1461.21 90.8522 1462.31 91.036C1463.47 91.1586 1464.36 91.2811 1464.98 91.4036V106.935C1464.36 106.69 1463.26 106.475 1461.67 106.292C1460.14 106.108 1458.39 106.016 1456.43 106.016C1452.32 106.016 1448.71 106.935 1445.58 108.773C1442.52 110.611 1440.13 113.276 1438.42 116.768C1436.76 120.199 1435.93 124.335 1435.93 129.175V188.176H1419.94ZM1503.95 188.176L1468.75 92.5984H1485.56L1511.94 171.174H1512.31L1538.78 92.5984H1555.41L1520.3 188.176H1503.95ZM1599.89 190.014C1590.76 190.014 1582.89 187.992 1576.28 183.948C1569.72 179.905 1564.66 174.207 1561.11 166.855C1557.62 159.441 1555.87 150.741 1555.87 140.755V140.663C1555.87 130.799 1557.65 122.129 1561.2 114.655C1564.76 107.119 1569.75 101.268 1576.18 97.1015C1582.62 92.8741 1590.18 90.7603 1598.88 90.7603C1607.58 90.7603 1615.06 92.7822 1621.31 96.8258C1627.62 100.808 1632.46 106.414 1635.83 113.644C1639.2 120.873 1640.88 129.267 1640.88 138.825V144.706H1563.87V132.208H1632.98L1624.89 143.787V137.63C1624.89 130.217 1623.76 124.09 1621.49 119.25C1619.29 114.41 1616.22 110.825 1612.3 108.497C1608.38 106.108 1603.88 104.913 1598.79 104.913C1593.71 104.913 1589.14 106.169 1585.1 108.681C1581.05 111.132 1577.87 114.808 1575.54 119.709C1573.21 124.549 1572.05 130.523 1572.05 137.63V143.787C1572.05 150.527 1573.18 156.286 1575.45 161.065C1577.78 165.844 1581.05 169.52 1585.28 172.093C1589.51 174.605 1594.5 175.861 1600.26 175.861C1604.31 175.861 1607.92 175.248 1611.11 174.023C1614.29 172.798 1616.96 171.113 1619.1 168.968C1621.25 166.824 1622.78 164.373 1623.7 161.616L1623.97 160.789H1639.69L1639.5 161.708C1638.71 165.629 1637.18 169.305 1634.91 172.736C1632.7 176.167 1629.85 179.2 1626.36 181.835C1622.87 184.408 1618.89 186.43 1614.41 187.9C1609.94 189.309 1605.1 190.014 1599.89 190.014Z" fill="white"/>
</svg>
